<svg xmlns="http://www.w3.org/2000/svg" viewBox="0 0 1166 1280" width="22" height="22">
<g transform="translate(0.000000,1280.000000) scale(0.100000,-0.100000)" fill="#AE0505" stroke="none">
<path d="M10513 12750 c74 -597 97 -1095 68 -1430 -36 -394 -127 -730 -286
-1055 -110 -225 -229 -408 -390 -600 l-25 -30 -127 126 c-716 705 -1669 1209
-2678 1415 -623 127 -1311 141 -1944 38 -1144 -184 -2195 -732 -3006 -1565
-82 -85 -193 -205 -245 -267 -52 -61 -98 -112 -101 -112 -4 0 -47 31 -96 68
-383 297 -665 657 -858 1094 -184 419 -285 870 -359 1608 l-22 225 -18 -50
c-295 -839 -406 -1344 -422 -1920 -25 -874 259 -1601 872 -2225 l122 -125 -44
-110 c-176 -436 -303 -985 -349 -1505 -35 -408 0 -2457 61 -3493 18 -323 27
-396 65 -528 235 -837 690 -1402 1336 -1660 173 -69 395 -129 508 -136 68 -5
87 -2 120 15 152 77 274 242 595 802 272 473 374 632 502 778 116 132 228 206
335 219 137 16 305 -95 492 -327 108 -133 182 -238 426 -605 369 -553 523
-740 711 -861 277 -178 523 -61 886 421 41 55 175 251 298 435 340 511 429
630 576 770 230 218 403 218 619 0 148 -148 244 -293 556 -837 286 -498 403
-669 516 -754 120 -90 139 -91 395 -18 747 213 1277 670 1532 1322 87 220 146
448 165 632 64 619 132 3368 93 3790 -64 704 -226 1305 -512 1901 l-77 162 79
113 c293 418 470 851 544 1329 22 143 30 506 15 667 -60 643 -296 1272 -784
2088 -66 110 -126 209 -134 220 -14 18 -15 17 -10 -25z"/>
</g>
</svg>
